<?xml version="1.0"?>
<svg xmlns="http://www.w3.org/2000/svg" xmlns:xlink="http://www.w3.org/1999/xlink" version="1.1" id="Layer_1" x="0px" y="0px" viewBox="0 0 218.207 218.207" style="enable-background:new 0 0 218.207 218.207;" xml:space="preserve" width="512px" height="512px" class=""><g><g>
	<g>
		<g>
			<path d="M214.31,27.276H3.897C1.743,27.276,0,29.019,0,31.172v19.483v136.379c0,2.154,1.743,3.897,3.897,3.897H214.31     c2.154,0,3.897-1.743,3.897-3.897V50.655V31.172C218.207,29.019,216.464,27.276,214.31,27.276z M210.414,183.138H7.793V54.552     h202.621V183.138z M210.414,46.759H7.793v-11.69h202.621V46.759z" data-original="#000000" class="active-path" data-old_color="#000000" fill="#FFFFFF"/>
			<path d="M27.276,109.105h46.759c2.154,0,3.897-1.743,3.897-3.897V66.241c-0.001-2.153-1.744-3.896-3.898-3.896H27.276     c-2.154,0-3.897,1.743-3.897,3.897v38.966C23.379,107.362,25.122,109.105,27.276,109.105z M31.172,70.138h38.966v31.172H31.172     V70.138z" data-original="#000000" class="active-path" data-old_color="#000000" fill="#FFFFFF"/>
			<path d="M27.276,159.76h46.759c2.154,0,3.897-1.743,3.897-3.897v-38.966c-0.001-2.154-1.744-3.897-3.898-3.897H27.276     c-2.154,0-3.897,1.743-3.897,3.897v38.966C23.379,158.017,25.122,159.76,27.276,159.76z M31.172,120.794h38.966v31.172H31.172     V120.794z" data-original="#000000" class="active-path" data-old_color="#000000" fill="#FFFFFF"/>
			<path d="M144.172,109.105h46.759c2.154,0,3.897-1.743,3.897-3.897V66.241c0-2.153-1.743-3.896-3.897-3.896h-46.759     c-2.154,0-3.897,1.743-3.897,3.897v38.966C140.275,107.362,142.018,109.105,144.172,109.105z M148.068,70.138h38.966v31.172     h-38.966V70.138z" data-original="#000000" class="active-path" data-old_color="#000000" fill="#FFFFFF"/>
			<path d="M144.172,159.76h46.759c2.154,0,3.897-1.743,3.897-3.897v-38.966c0-2.154-1.743-3.897-3.897-3.897h-46.759     c-2.154,0-3.897,1.743-3.897,3.897v38.966C140.275,158.017,142.018,159.76,144.172,159.76z M148.068,120.794h38.966v31.172     h-38.966V120.794z" data-original="#000000" class="active-path" data-old_color="#000000" fill="#FFFFFF"/>
			<path d="M85.724,109.105h46.759c2.154,0,3.897-1.743,3.897-3.897V66.241c-0.001-2.153-1.744-3.896-3.897-3.896H85.724     c-2.154,0-3.897,1.743-3.897,3.897v38.966C81.827,107.362,83.57,109.105,85.724,109.105z M89.621,70.138h38.966v31.172h-0.001     H89.621V70.138z" data-original="#000000" class="active-path" data-old_color="#000000" fill="#FFFFFF"/>
			<path d="M85.724,159.76h46.759c2.154,0,3.897-1.743,3.897-3.897v-38.966c-0.001-2.154-1.744-3.897-3.897-3.897H85.724     c-2.154,0-3.897,1.743-3.897,3.897v38.966C81.827,158.017,83.57,159.76,85.724,159.76z M89.621,120.794h38.966v31.172h-0.001     H89.621V120.794z" data-original="#000000" class="active-path" data-old_color="#000000" fill="#FFFFFF"/>
		</g>
	</g>
</g></g> </svg>
